<svg width="24" height="24" viewBox="0 0 24 24" fill="none" xmlns="http://www.w3.org/2000/svg">
<path d="M5 6V12M5 18V12M18 5L5 12M5 12L18 19" stroke="#F3B1B1" stroke-width="3"/>
<path d="M5 7V12.2857M5 17V12.2857M12 8.09524L5 12.2857M5 12.2857L12 15.5" stroke="#B5CEE0" stroke-width="2"/>
<path d="M9 18V6C9 5.44772 9.44772 5 10 5H12.5858C12.851 5 13.1054 5.10536 13.2929 5.29289L14.7071 6.70711C14.8946 6.89464 15 7.149 15 7.41421V9.5C15 9.81476 14.8518 10.1111 14.6 10.3L13 11.5V12.5L14.6 13.7C14.8518 13.8889 15 14.1852 15 14.5V16.5858C15 16.851 14.8946 17.1054 14.7071 17.2929L13.2929 18.7071C13.1054 18.8946 12.851 19 12.5858 19H10C9.44772 19 9 18.5523 9 18Z" stroke="#D4DED5" stroke-width="2"/>
<path d="M16 16V8C16 7.44772 16.4477 7 17 7H18.2321C18.5093 7 18.774 7.11505 18.9632 7.31768L19.7311 8.14042C19.9039 8.32559 20 8.56944 20 8.82273V10.0921C20 10.3952 19.8626 10.6818 19.6264 10.8716L18.6667 11.6429V12.3571L19.6264 13.1284C19.8626 13.3182 20 13.6048 20 13.9079V15.1773C20 15.4306 19.9039 15.6744 19.7311 15.8596L18.9632 16.6823C18.774 16.885 18.5093 17 18.2321 17H17C16.4477 17 16 16.5523 16 16Z" stroke="#8C90FF" stroke-opacity="0.45" stroke-width="2"/>
<path d="M10 17V7C10 6.44772 10.4477 6 11 6H12.9108C13.1809 6 13.4396 6.10926 13.6278 6.30292L14.717 7.42319C14.8985 7.60986 15 7.85993 15 8.12027V9.79417C15 10.1042 14.8562 10.3966 14.6108 10.586L13.3333 11.5714V12.4286L14.6108 13.414C14.8562 13.6034 15 13.8958 15 14.2058V15.8797C15 16.1401 14.8985 16.3901 14.717 16.5768L13.6278 17.6971C13.4396 17.8907 13.1809 18 12.9108 18H11C10.4477 18 10 17.5523 10 17Z" stroke="black" stroke-opacity="0.37" stroke-width="2"/>
<rect x="1" y="11" width="22" height="2" fill="#B77878" fill-opacity="0.27"/>
</svg>
